# WaveFront *.obj file (generated by Autodesk ATF)

mtllib Pista WSDC.mtl

g Solid1

v -0.440500 0.140000 1.000000
v -0.440500 0.220000 1.000000
v -0.440500 0.220000 0.999900
v -0.440500 0.140000 0.999900
v -0.570500 0.140000 1.000000
v -0.570500 0.140000 0.999900
v -0.570500 0.220000 1.000000
v -0.570500 0.220000 0.999900
v -0.580500 0.130000 1.000000
v -0.580500 0.230000 1.000000
v -0.580500 0.230000 0.999900
v -0.580500 0.130000 0.999900
v -0.430500 0.130000 1.000000
v -0.430500 0.130000 0.999900
v -0.430500 0.230000 1.000000
v -0.430500 0.230000 0.999900
v -0.770011 0.020000 1.000000
v -1.000000 0.020000 1.000000
v -1.000000 0.320000 1.000000
v -0.011000 0.320000 1.000000
v -0.011000 0.020000 1.000000
v -0.229989 0.020000 1.000000
v -0.250000 0.020000 1.000000
v -0.350000 0.020000 1.000000
v -0.370000 0.020000 1.000000
v -0.630000 0.020000 1.000000
v -0.650000 0.020000 1.000000
v -0.750000 0.020000 1.000000
v -1.000000 0.129624 0.065000
v -1.000000 0.209624 0.065000
v -0.999900 0.209624 0.065000
v -0.999900 0.129624 0.065000
v -1.000000 0.129624 -0.065000
v -0.999900 0.129624 -0.065000
v -1.000000 0.209624 -0.065000
v -0.999900 0.209624 -0.065000
v -1.000000 0.119624 -0.075000
v -1.000000 0.219624 -0.075000
v -0.999900 0.219624 -0.075000
v -0.999900 0.119624 -0.075000
v -1.000000 0.119624 0.075000
v -0.999900 0.119624 0.075000
v -1.000000 0.219624 0.075000
v -0.999900 0.219624 0.075000
v -1.000000 0.020000 -0.270000
v -1.000000 0.020000 -1.000000
v -1.000000 0.320000 -1.000000
v -1.000000 0.020000 0.270000
v -1.000000 0.020000 0.250000
v -1.000000 0.020000 0.150000
v -1.000000 0.020000 0.130000
v -1.000000 0.020000 -0.130000
v -1.000000 0.020000 -0.150000
v -1.000000 0.020000 -0.250000
v -0.565000 0.130000 -1.000000
v -0.565000 0.210000 -1.000000
v -0.565000 0.210000 -0.999900
v -0.565000 0.130000 -0.999900
v -0.435000 0.130000 -1.000000
v -0.435000 0.130000 -0.999900
v -0.435000 0.210000 -1.000000
v -0.435000 0.210000 -0.999900
v -0.425000 0.120000 -1.000000
v -0.425000 0.220000 -1.000000
v -0.425000 0.220000 -0.999900
v -0.425000 0.120000 -0.999900
v -0.575000 0.120000 -1.000000
v -0.575000 0.120000 -0.999900
v -0.575000 0.220000 -1.000000
v -0.575000 0.220000 -0.999900
v -0.230000 0.020000 -1.000000
v -0.011000 0.020000 -1.000000
v -0.011000 0.320000 -1.000000
v -0.770000 0.020000 -1.000000
v -0.750000 0.020000 -1.000000
v -0.650000 0.020000 -1.000000
v -0.630000 0.020000 -1.000000
v -0.370000 0.020000 -1.000000
v -0.350000 0.020000 -1.000000
v -0.250000 0.020000 -1.000000
v -0.229989 0.020000 0.679989
v -0.229989 0.019900 0.679989
v -0.229989 0.019900 1.000000
v -0.770011 0.020000 0.679989
v -0.770011 0.019900 0.679989
v -0.770011 0.019900 1.000000
v -0.750000 0.020000 0.700000
v -0.750000 0.019900 0.700000
v -0.750000 0.019900 1.000000
v -0.250000 0.020000 0.700000
v -0.250000 0.019900 0.700000
v -0.250000 0.019900 1.000000
v -0.350000 0.020000 0.800000
v -0.350000 0.019900 0.800000
v -0.350000 0.019900 1.000000
v -0.650000 0.020000 0.800000
v -0.650000 0.019900 0.800000
v -0.650000 0.019900 1.000000
v -0.630000 0.020000 0.820000
v -0.630000 0.019900 0.820000
v -0.630000 0.019900 1.000000
v -0.370000 0.020000 0.820000
v -0.370000 0.019900 0.820000
v -0.370000 0.019900 1.000000
v -0.820000 0.020000 -0.130000
v -0.820000 0.019900 -0.130000
v -1.000000 0.019900 -0.130000
v -0.820000 0.020000 0.130000
v -0.820000 0.019900 0.130000
v -1.000000 0.019900 0.130000
v -0.800000 0.020000 0.150000
v -0.800000 0.019900 0.150000
v -1.000000 0.019900 0.150000
v -0.800000 0.020000 -0.150000
v -0.800000 0.019900 -0.150000
v -1.000000 0.019900 -0.150000
v -0.680000 0.020000 0.270000
v -0.680000 0.019900 0.270000
v -1.000000 0.019900 0.270000
v -0.680000 0.020000 -0.270000
v -0.680000 0.019900 -0.270000
v -1.000000 0.019900 -0.270000
v -0.700000 0.020000 -0.250000
v -0.700000 0.019900 -0.250000
v -1.000000 0.019900 -0.250000
v -0.700000 0.020000 0.250000
v -0.700000 0.019900 0.250000
v -1.000000 0.019900 0.250000
v 0.370000 0.020000 -0.880000
v 0.650000 0.020000 -0.880000
v 0.650000 0.019900 -0.880000
v 0.370000 0.019900 -0.880000
v 0.650000 0.020000 -0.900000
v 0.650000 0.019900 -0.900000
v 0.350000 0.020000 -0.900000
v 0.350000 0.019900 -0.900000
v 0.350000 0.020000 -0.600000
v 0.350000 0.019900 -0.600000
v 0.650000 0.020000 -0.600000
v 0.650000 0.019900 -0.600000
v 0.650000 0.020000 -0.620000
v 0.650000 0.019900 -0.620000
v 0.370000 0.020000 -0.620000
v 0.370000 0.019900 -0.620000
v -0.370000 0.020000 -0.820000
v -0.370000 0.019900 -0.820000
v -0.370000 0.019900 -1.000000
v -0.630000 0.020000 -0.820000
v -0.630000 0.019900 -0.820000
v -0.630000 0.019900 -1.000000
v -0.650000 0.020000 -0.800000
v -0.650000 0.019900 -0.800000
v -0.650000 0.019900 -1.000000
v -0.350000 0.020000 -0.800000
v -0.350000 0.019900 -0.800000
v -0.350000 0.019900 -1.000000
v 0.350000 0.020000 0.900000
v 0.650000 0.020000 0.900000
v 0.650000 0.019900 0.900000
v 0.350000 0.019900 0.900000
v 0.650000 0.020000 0.880000
v 0.650000 0.019900 0.880000
v 0.370000 0.020000 0.880000
v 0.370000 0.019900 0.880000
v 0.370000 0.020000 0.620000
v 0.370000 0.019900 0.620000
v 0.650000 0.020000 0.620000
v 0.650000 0.019900 0.620000
v 0.650000 0.020000 0.600000
v 0.650000 0.019900 0.600000
v 0.350000 0.020000 0.600000
v 0.350000 0.019900 0.600000
v -0.770000 0.020000 -0.680000
v -0.770000 0.019900 -0.680000
v -0.770000 0.019900 -1.000000
v -0.230000 0.020000 -0.680000
v -0.230000 0.019900 -0.680000
v -0.230000 0.019900 -1.000000
v -0.250000 0.020000 -0.700000
v -0.250000 0.019900 -0.700000
v -0.250000 0.019900 -1.000000
v -0.750000 0.020000 -0.700000
v -0.750000 0.019900 -0.700000
v -0.750000 0.019900 -1.000000
v -0.011000 0.020000 0.350000
v 0.011000 0.020000 0.350000
v 0.011000 0.020000 1.000000
v 1.000000 0.020000 1.000000
v 1.000000 0.020000 -1.000000
v 0.011000 0.020000 -1.000000
v 0.011000 0.020000 -0.350000
v -0.011000 0.020000 -0.350000
v 0.011000 0.320000 0.350000
v 0.011000 0.320000 1.000000
v 1.000000 0.320000 1.000000
v 1.000000 0.320000 -1.000000
v 0.011000 0.320000 -1.000000
v 0.011000 0.320000 -0.350000
v -0.011000 0.320000 -0.350000
v -0.011000 0.320000 0.350000
v -1.022000 0.020000 1.022000
v 1.022000 0.020000 1.022000
v 1.022000 0.320000 1.022000
v -1.022000 0.320000 1.022000
v -1.022000 0.020000 -1.022000
v -1.022000 0.320000 -1.022000
v 1.022000 0.020000 -1.022000
v 1.022000 0.320000 -1.022000
v 1.000000 0.000000 -1.000000
v -1.000000 0.000000 -1.000000
v 1.000000 0.000000 1.000000
v -1.000000 0.000000 1.000000
vt 0.000000 0.000000 0.000000
vt 8.000000 0.000000 0.000000
vt 0.000000 0.010000 0.000000
vt 8.000000 0.010000 0.000000
vt 0.000000 0.000000 0.000000
vt 13.000000 0.000000 0.000000
vt 0.000000 0.010000 0.000000
vt 13.000000 0.010000 0.000000
vt -0.000000 0.000000 0.000000
vt 8.000000 0.000000 0.000000
vt 0.000000 0.010000 0.000000
vt 8.000000 0.010000 0.000000
vt -0.000000 0.000000 0.000000
vt 13.000000 0.000000 0.000000
vt 0.000000 0.010000 0.000000
vt 13.000000 0.010000 0.000000
vt 0.000000 0.000000 0.000000
vt 10.000000 0.000000 0.000000
vt 0.000000 0.010000 0.000000
vt 10.000000 0.010000 0.000000
vt -0.000000 0.000000 0.000000
vt 15.000000 0.000000 0.000000
vt 0.000000 0.010000 0.000000
vt 15.000000 0.010000 0.000000
vt -0.000000 0.000000 0.000000
vt 10.000000 0.000000 0.000000
vt 0.000000 0.010000 0.000000
vt 10.000000 0.010000 0.000000
vt 0.000000 0.000000 0.000000
vt 15.000000 0.000000 0.000000
vt 0.000000 0.010000 0.000000
vt 15.000000 0.010000 0.000000
vt 7.500000 -5.000000 0.000000
vt 7.500000 5.000000 0.000000
vt 6.500000 4.000000 0.000000
vt -7.500000 5.000000 0.000000
vt -6.500000 4.000000 0.000000
vt -7.500000 -5.000000 0.000000
vt -6.500000 -4.000000 0.000000
vt 6.500000 -4.000000 0.000000
vt 73.900000 0.000000 0.000000
vt 75.901092 0.000000 0.000000
vt 56.950000 11.000000 0.000000
vt 98.900000 0.000000 0.000000
vt 98.900000 30.000000 0.000000
vt 56.950000 21.000000 0.000000
vt -0.000000 30.000000 0.000000
vt 41.950000 21.000000 0.000000
vt 41.950000 11.000000 0.000000
vt 0.000000 0.000000 0.000000
vt 21.898908 0.000000 0.000000
vt 23.900000 0.000000 0.000000
vt 33.900000 0.000000 0.000000
vt 35.900000 0.000000 0.000000
vt 61.900000 0.000000 0.000000
vt 63.900000 0.000000 0.000000
vt 0.000000 0.000000 0.000000
vt 8.000000 0.000000 0.000000
vt 0.000000 0.010000 0.000000
vt 8.000000 0.010000 0.000000
vt 0.000000 0.000000 0.000000
vt 13.000000 0.000000 0.000000
vt 0.000000 0.010000 0.000000
vt 13.000000 0.010000 0.000000
vt -0.000000 0.000000 0.000000
vt 8.000000 0.000000 0.000000
vt -0.000000 0.010000 0.000000
vt 8.000000 0.010000 0.000000
vt 0.000000 0.000000 0.000000
vt 13.000000 0.000000 0.000000
vt 0.000000 0.010000 0.000000
vt 13.000000 0.010000 0.000000
vt 0.000000 0.000000 0.000000
vt 10.000000 0.000000 0.000000
vt 0.000000 0.010000 0.000000
vt 10.000000 0.010000 0.000000
vt 0.000000 0.000000 0.000000
vt 15.000000 0.000000 0.000000
vt 0.000000 0.010000 0.000000
vt 15.000000 0.010000 0.000000
vt -0.000000 0.000000 0.000000
vt 10.000000 0.000000 0.000000
vt -0.000000 0.010000 0.000000
vt 10.000000 0.010000 0.000000
vt 0.000000 0.000000 0.000000
vt 15.000000 0.000000 0.000000
vt 0.000000 0.010000 0.000000
vt 15.000000 0.010000 0.000000
vt 7.500000 -5.000000 0.000000
vt 7.500000 5.000000 0.000000
vt 6.500000 4.000000 0.000000
vt -7.500000 5.000000 0.000000
vt -6.500000 4.000000 0.000000
vt -7.500000 -5.000000 0.000000
vt -6.500000 -4.000000 0.000000
vt 6.500000 -4.000000 0.000000
vt 125.000000 0.000000 0.000000
vt 127.000000 0.000000 0.000000
vt 107.500000 9.962423 0.000000
vt 200.000000 0.000000 0.000000
vt 107.500000 19.962423 0.000000
vt 200.000000 30.000000 0.000000
vt -0.000000 30.000000 0.000000
vt 92.500000 19.962423 0.000000
vt -0.000000 0.000000 0.000000
vt 92.500000 9.962423 0.000000
vt 73.000000 0.000000 0.000000
vt 75.000000 0.000000 0.000000
vt 85.000000 0.000000 0.000000
vt 87.000000 0.000000 0.000000
vt 113.000000 0.000000 0.000000
vt 115.000000 0.000000 0.000000
vt 0.000000 0.000000 0.000000
vt 8.000000 0.000000 0.000000
vt 0.000000 0.010000 0.000000
vt 8.000000 0.010000 0.000000
vt -0.000000 0.000000 0.000000
vt 13.000000 0.000000 0.000000
vt -0.000000 0.010000 0.000000
vt 13.000000 0.010000 0.000000
vt -0.000000 0.000000 0.000000
vt 8.000000 0.000000 0.000000
vt -0.000000 0.010000 0.000000
vt 8.000000 0.010000 0.000000
vt 0.000000 0.000000 0.000000
vt 13.000000 0.000000 0.000000
vt 0.000000 0.010000 0.000000
vt 13.000000 0.010000 0.000000
vt 0.000000 0.000000 0.000000
vt 10.000000 0.000000 0.000000
vt 0.000000 0.010000 0.000000
vt 10.000000 0.010000 0.000000
vt 0.000000 0.000000 0.000000
vt 15.000000 0.000000 0.000000
vt 0.000000 0.010000 0.000000
vt 15.000000 0.010000 0.000000
vt -0.000000 0.000000 0.000000
vt 10.000000 0.000000 0.000000
vt -0.000000 0.010000 0.000000
vt 10.000000 0.010000 0.000000
vt -0.000000 0.000000 0.000000
vt 15.000000 0.000000 0.000000
vt -0.000000 0.010000 0.000000
vt 15.000000 0.010000 0.000000
vt 7.500000 -5.000000 0.000000
vt 7.500000 5.000000 0.000000
vt 6.500000 4.000000 0.000000
vt -7.500000 5.000000 0.000000
vt -6.500000 4.000000 0.000000
vt -7.500000 -5.000000 0.000000
vt -6.500000 -4.000000 0.000000
vt 6.500000 -4.000000 0.000000
vt 75.000000 0.000000 0.000000
vt 77.000000 0.000000 0.000000
vt 57.500000 10.000000 0.000000
vt 98.900000 0.000000 0.000000
vt 57.500000 20.000000 0.000000
vt 98.900000 30.000000 0.000000
vt 42.500000 20.000000 0.000000
vt 0.000000 30.000000 0.000000
vt 0.000000 0.000000 0.000000
vt 42.500000 10.000000 0.000000
vt 23.000000 0.000000 0.000000
vt 25.000000 0.000000 0.000000
vt 35.000000 0.000000 0.000000
vt 37.000000 0.000000 0.000000
vt 63.000000 0.000000 0.000000
vt 65.000000 0.000000 0.000000
vt -32.001092 0.000000 0.000000
vt -0.000000 0.000000 0.000000
vt -32.001092 0.010000 0.000000
vt -0.000000 0.010000 0.000000
vt -54.002185 0.000000 0.000000
vt -0.000000 0.000000 0.000000
vt -54.002185 0.010000 0.000000
vt -0.000000 0.010000 0.000000
vt -32.001092 0.000000 0.000000
vt 0.000000 0.000000 0.000000
vt -32.001092 0.010000 0.000000
vt -0.000000 0.010000 0.000000
vt -30.000000 0.000000 0.000000
vt -0.000000 0.000000 0.000000
vt -30.000000 0.010000 0.000000
vt -0.000000 0.010000 0.000000
vt -50.000000 0.000000 0.000000
vt 0.000000 0.000000 0.000000
vt -50.000000 0.010000 0.000000
vt -0.000000 0.010000 0.000000
vt -30.000000 0.000000 0.000000
vt 0.000000 0.000000 0.000000
vt -30.000000 0.010000 0.000000
vt -0.000000 0.010000 0.000000
vt 16.000546 25.000000 0.000000
vt 16.000546 27.001092 0.000000
vt -13.999454 25.000000 0.000000
vt -16.000546 27.001092 0.000000
vt -16.000546 -27.001092 0.000000
vt -13.999454 -25.000000 0.000000
vt 16.000546 -27.001092 0.000000
vt 16.000546 -25.000000 0.000000
vt -20.000000 0.000000 0.000000
vt -0.000000 0.000000 0.000000
vt -20.000000 0.010000 0.000000
vt -0.000000 0.010000 0.000000
vt -30.000000 0.000000 0.000000
vt -0.000000 0.000000 0.000000
vt -30.000000 0.010000 0.000000
vt -0.000000 0.010000 0.000000
vt -20.000000 0.000000 0.000000
vt -0.000000 0.000000 0.000000
vt -20.000000 0.010000 0.000000
vt -0.000000 0.010000 0.000000
vt -18.000000 0.000000 0.000000
vt -0.000000 0.000000 0.000000
vt -18.000000 0.010000 0.000000
vt -0.000000 0.010000 0.000000
vt -26.000000 0.000000 0.000000
vt -0.000000 0.000000 0.000000
vt -26.000000 0.010000 0.000000
vt 0.000000 0.010000 0.000000
vt -18.000000 0.000000 0.000000
vt -0.000000 0.000000 0.000000
vt -18.000000 0.010000 0.000000
vt -0.000000 0.010000 0.000000
vt 10.000000 13.000000 0.000000
vt 10.000000 15.000000 0.000000
vt -8.000000 13.000000 0.000000
vt -10.000000 15.000000 0.000000
vt -10.000000 -15.000000 0.000000
vt -8.000000 -13.000000 0.000000
vt 10.000000 -15.000000 0.000000
vt 10.000000 -13.000000 0.000000
vt -18.000000 -0.000000 0.000000
vt 0.000000 0.000000 0.000000
vt -18.000000 0.010000 0.000000
vt -0.000000 0.010000 0.000000
vt -26.000000 0.000000 0.000000
vt 0.000000 0.000000 0.000000
vt -26.000000 0.010000 0.000000
vt -0.000000 0.010000 0.000000
vt -18.000000 0.000000 0.000000
vt -0.000000 0.000000 0.000000
vt -18.000000 0.010000 0.000000
vt -0.000000 0.010000 0.000000
vt -20.000000 0.000000 0.000000
vt -0.000000 0.000000 0.000000
vt -20.000000 0.010000 0.000000
vt -0.000000 0.010000 0.000000
vt -30.000000 0.000000 0.000000
vt -0.000000 0.000000 0.000000
vt -30.000000 0.010000 0.000000
vt -0.000000 0.010000 0.000000
vt -20.000000 0.000000 0.000000
vt -0.000000 0.000000 0.000000
vt -20.000000 0.010000 0.000000
vt -0.000000 0.010000 0.000000
vt -15.000000 -10.000000 0.000000
vt -13.000000 8.000000 0.000000
vt -15.000000 10.000000 0.000000
vt 13.000000 8.000000 0.000000
vt 15.000000 10.000000 0.000000
vt 15.000000 -10.000000 0.000000
vt 13.000000 -10.000000 0.000000
vt -13.000000 -10.000000 0.000000
vt -32.000000 0.000000 0.000000
vt -0.000000 0.000000 0.000000
vt -32.000000 0.010000 0.000000
vt -0.000000 0.010000 0.000000
vt -54.000000 0.000000 0.000000
vt -0.000000 0.000000 0.000000
vt -54.000000 0.010000 0.000000
vt -0.000000 0.010000 0.000000
vt -32.000000 0.000000 0.000000
vt -0.000000 0.000000 0.000000
vt -32.000000 0.010000 0.000000
vt -0.000000 0.010000 0.000000
vt -30.000000 -0.000000 0.000000
vt 0.000000 0.000000 0.000000
vt -30.000000 0.010000 0.000000
vt -0.000000 0.010000 0.000000
vt -50.000000 0.000000 0.000000
vt 0.000000 0.000000 0.000000
vt -50.000000 0.010000 0.000000
vt -0.000000 0.010000 0.000000
vt -30.000000 0.000000 0.000000
vt -0.000000 0.000000 0.000000
vt -30.000000 0.010000 0.000000
vt -0.000000 0.010000 0.000000
vt 25.000000 -16.000000 0.000000
vt 27.000000 -16.000000 0.000000
vt 25.000000 14.000000 0.000000
vt 27.000000 16.000000 0.000000
vt -27.000000 16.000000 0.000000
vt -25.000000 14.000000 0.000000
vt -27.000000 -16.000000 0.000000
vt -25.000000 -16.000000 0.000000
vt -28.000000 0.000000 0.000000
vt -0.000000 0.000000 0.000000
vt -28.000000 0.010000 0.000000
vt -0.000000 0.010000 0.000000
vt -2.000000 0.000000 0.000000
vt -0.000000 0.000000 0.000000
vt -2.000000 0.010000 0.000000
vt -0.000000 0.010000 0.000000
vt -30.000000 0.000000 0.000000
vt -0.000000 0.000000 0.000000
vt -30.000000 0.010000 0.000000
vt -0.000000 0.010000 0.000000
vt -30.000000 0.000000 0.000000
vt -0.000000 0.000000 0.000000
vt -30.000000 0.010000 0.000000
vt -0.000000 0.010000 0.000000
vt -30.000000 0.000000 0.000000
vt -0.000000 0.000000 0.000000
vt -30.000000 0.010000 0.000000
vt -0.000000 0.010000 0.000000
vt -2.000000 0.000000 0.000000
vt -0.000000 0.000000 0.000000
vt -2.000000 0.010000 0.000000
vt -0.000000 0.010000 0.000000
vt -28.000000 0.000000 0.000000
vt -0.000000 0.000000 0.000000
vt -28.000000 0.010000 0.000000
vt -0.000000 0.010000 0.000000
vt -26.000000 0.000000 0.000000
vt -0.000000 0.000000 0.000000
vt -26.000000 0.010000 0.000000
vt -0.000000 0.010000 0.000000
vt -13.000000 -13.000000 0.000000
vt 15.000000 -15.000000 0.000000
vt 13.000000 -13.000000 0.000000
vt 15.000000 15.000000 0.000000
vt 13.000000 15.000000 0.000000
vt -13.000000 15.000000 0.000000
vt -15.000000 15.000000 0.000000
vt -15.000000 -15.000000 0.000000
vt -18.000000 -0.000000 0.000000
vt 0.000000 0.000000 0.000000
vt -18.000000 0.010000 0.000000
vt -0.000000 0.010000 0.000000
vt -26.000000 0.000000 0.000000
vt -0.000000 0.000000 0.000000
vt -26.000000 0.010000 0.000000
vt -0.000000 0.010000 0.000000
vt -18.000000 0.000000 0.000000
vt -0.000000 0.000000 0.000000
vt -18.000000 0.010000 0.000000
vt -0.000000 0.010000 0.000000
vt -20.000000 0.000000 0.000000
vt 0.000000 0.000000 0.000000
vt -20.000000 0.010000 0.000000
vt -0.000000 0.010000 0.000000
vt -30.000000 -0.000000 0.000000
vt 0.000000 0.000000 0.000000
vt -30.000000 0.010000 0.000000
vt -0.000000 0.010000 0.000000
vt -20.000000 0.000000 0.000000
vt -0.000000 0.000000 0.000000
vt -20.000000 0.010000 0.000000
vt -0.000000 0.010000 0.000000
vt 10.000000 -15.000000 0.000000
vt 10.000000 15.000000 0.000000
vt 8.000000 13.000000 0.000000
vt -10.000000 15.000000 0.000000
vt -10.000000 13.000000 0.000000
vt 8.000000 -13.000000 0.000000
vt -10.000000 -15.000000 0.000000
vt -10.000000 -13.000000 0.000000
vt -30.000000 0.000000 0.000000
vt 0.000000 0.000000 0.000000
vt -30.000000 0.010000 0.000000
vt -0.000000 0.010000 0.000000
vt -2.000000 0.000000 0.000000
vt -0.000000 0.000000 0.000000
vt -2.000000 0.010000 0.000000
vt -0.000000 0.010000 0.000000
vt -28.000000 0.000000 0.000000
vt -0.000000 0.000000 0.000000
vt -28.000000 0.010000 0.000000
vt -0.000000 0.010000 0.000000
vt -26.000000 0.000000 0.000000
vt -0.000000 0.000000 0.000000
vt -26.000000 0.010000 0.000000
vt -0.000000 0.010000 0.000000
vt -28.000000 0.000000 0.000000
vt -0.000000 0.000000 0.000000
vt -28.000000 0.010000 0.000000
vt -0.000000 0.010000 0.000000
vt -2.000000 0.000000 0.000000
vt -0.000000 0.000000 0.000000
vt -2.000000 0.010000 0.000000
vt -0.000000 0.010000 0.000000
vt -30.000000 0.000000 0.000000
vt -0.000000 0.000000 0.000000
vt -30.000000 0.010000 0.000000
vt -0.000000 0.010000 0.000000
vt -30.000000 -0.000000 0.000000
vt 0.000000 0.000000 0.000000
vt -30.000000 0.010000 0.000000
vt -0.000000 0.010000 0.000000
vt -15.000000 15.000000 0.000000
vt -15.000000 -15.000000 0.000000
vt -13.000000 -13.000000 0.000000
vt 15.000000 -15.000000 0.000000
vt 13.000000 -13.000000 0.000000
vt 15.000000 15.000000 0.000000
vt 13.000000 15.000000 0.000000
vt -13.000000 15.000000 0.000000
vt -32.000000 0.000000 0.000000
vt -0.000000 0.000000 0.000000
vt -32.000000 0.010000 0.000000
vt -0.000000 0.010000 0.000000
vt -54.000000 0.000000 0.000000
vt 0.000000 0.000000 0.000000
vt -54.000000 0.010000 0.000000
vt -0.000000 0.010000 0.000000
vt -32.000000 0.000000 0.000000
vt -0.000000 0.000000 0.000000
vt -32.000000 0.010000 0.000000
vt -0.000000 0.010000 0.000000
vt -30.000000 0.000000 0.000000
vt -0.000000 0.000000 0.000000
vt -30.000000 0.010000 0.000000
vt -0.000000 0.010000 0.000000
vt -50.000000 0.000000 0.000000
vt -0.000000 0.000000 0.000000
vt -50.000000 0.010000 0.000000
vt -0.000000 0.010000 0.000000
vt -30.000000 0.000000 0.000000
vt -0.000000 0.000000 0.000000
vt -30.000000 0.010000 0.000000
vt -0.000000 0.010000 0.000000
vt -16.000000 -25.000000 0.000000
vt -16.000000 -27.000000 0.000000
vt 14.000000 -25.000000 0.000000
vt 16.000000 -27.000000 0.000000
vt 14.000000 25.000000 0.000000
vt 16.000000 27.000000 0.000000
vt -16.000000 27.000000 0.000000
vt -16.000000 25.000000 0.000000
vt -82.000000 -37.000000 0.000000
vt -100.000000 -37.000000 0.000000
vt -82.000000 -63.000000 0.000000
vt -100.000000 -63.000000 0.000000
vt -100.000000 -35.000000 0.000000
vt -80.000000 -35.000000 0.000000
vt -100.000000 -25.000000 0.000000
vt -70.000000 -25.000000 0.000000
vt -70.000000 -75.000000 0.000000
vt -80.000000 -65.000000 0.000000
vt -100.000000 -75.000000 0.000000
vt -100.000000 -65.000000 0.000000
vt -13.000000 -100.000000 0.000000
vt 13.000000 -100.000000 0.000000
vt -13.000000 -82.000000 0.000000
vt 13.000000 -82.000000 0.000000
vt -15.000000 -100.000000 0.000000
vt -15.000000 -80.000000 0.000000
vt -25.000000 -100.000000 0.000000
vt -25.000000 -70.000000 0.000000
vt 15.000000 -80.000000 0.000000
vt 25.000000 -70.000000 0.000000
vt 25.000000 -100.000000 0.000000
vt 15.000000 -100.000000 0.000000
vt 100.000000 -37.000000 0.000000
vt 82.000000 -37.000000 0.000000
vt 100.000000 -63.000000 0.000000
vt 82.000000 -63.000000 0.000000
vt 100.000000 -22.998908 0.000000
vt 100.000000 -1.100000 0.000000
vt 67.998908 -22.998908 0.000000
vt 35.000000 -1.100000 0.000000
vt 27.000000 -68.000000 0.000000
vt -27.000000 -68.000000 0.000000
vt -35.000000 -1.100000 0.000000
vt -68.000000 -23.000000 0.000000
vt -100.000000 -1.100000 0.000000
vt -100.000000 -23.000000 0.000000
vt -35.000000 1.100000 0.000000
vt 35.000000 1.100000 0.000000
vt -60.000000 35.000000 0.000000
vt -60.000000 65.000000 0.000000
vt 60.000000 35.000000 0.000000
vt 60.000000 65.000000 0.000000
vt 100.000000 1.100000 0.000000
vt 90.000000 35.000000 0.000000
vt 90.000000 65.000000 0.000000
vt 100.000000 100.000000 0.000000
vt 88.000000 65.000000 0.000000
vt 62.000000 65.000000 0.000000
vt 88.000000 37.000000 0.000000
vt 62.000000 37.000000 0.000000
vt -100.000000 100.000000 0.000000
vt -62.000000 65.000000 0.000000
vt -88.000000 65.000000 0.000000
vt -62.000000 37.000000 0.000000
vt -88.000000 37.000000 0.000000
vt -90.000000 65.000000 0.000000
vt -100.000000 1.100000 0.000000
vt -90.000000 35.000000 0.000000
vt -68.000000 -77.000000 0.000000
vt -27.000000 -100.000000 0.000000
vt -100.000000 -100.000000 0.000000
vt -100.000000 -77.000000 0.000000
vt 67.998908 -77.001092 0.000000
vt 27.000000 -100.000000 0.000000
vt 100.000000 -100.000000 0.000000
vt 100.000000 -77.001092 0.000000
vt 100.000000 -35.000000 0.000000
vt 100.000000 -25.000000 0.000000
vt 80.000000 -35.000000 0.000000
vt 70.000000 -25.000000 0.000000
vt 70.000000 -75.000000 0.000000
vt 80.000000 -65.000000 0.000000
vt 100.000000 -75.000000 0.000000
vt 100.000000 -65.000000 0.000000
vt 0.000000 0.000000 0.000000
vt 65.000000 0.000000 0.000000
vt 0.000000 30.000000 0.000000
vt 65.000000 30.000000 0.000000
vt -0.000000 0.000000 0.000000
vt 98.900000 0.000000 0.000000
vt -0.000000 30.000000 0.000000
vt 98.900000 30.000000 0.000000
vt 0.000000 0.000000 0.000000
vt 200.000000 0.000000 0.000000
vt 0.000000 30.000000 0.000000
vt 200.000000 30.000000 0.000000
vt 0.000000 0.000000 0.000000
vt 98.900000 0.000000 0.000000
vt 0.000000 30.000000 0.000000
vt 98.900000 30.000000 0.000000
vt 0.000000 0.000000 0.000000
vt 65.000000 0.000000 0.000000
vt -0.000000 30.000000 0.000000
vt 65.000000 30.000000 0.000000
vt 0.000000 0.000000 0.000000
vt 2.200000 0.000000 0.000000
vt -0.000000 30.000000 0.000000
vt 2.200000 30.000000 0.000000
vt 0.000000 0.000000 0.000000
vt 65.000000 0.000000 0.000000
vt 0.000000 30.000000 0.000000
vt 65.000000 30.000000 0.000000
vt 43.500000 11.000000 0.000000
vt 56.500000 11.000000 0.000000
vt 43.500000 19.000000 0.000000
vt 56.500000 19.000000 0.000000
vt 93.500000 10.962423 0.000000
vt 106.500000 10.962423 0.000000
vt 93.500000 18.962423 0.000000
vt 106.500000 18.962423 0.000000
vt 42.950000 12.000000 0.000000
vt 55.950000 12.000000 0.000000
vt 42.950000 20.000000 0.000000
vt 55.950000 20.000000 0.000000
vt 0.000000 0.000000 0.000000
vt 65.000000 0.000000 0.000000
vt 0.000000 30.000000 0.000000
vt 65.000000 30.000000 0.000000
vt -0.000000 0.000000 0.000000
vt 2.200000 0.000000 0.000000
vt 0.000000 30.000000 0.000000
vt 2.200000 30.000000 0.000000
vt 0.000000 0.000000 0.000000
vt 204.400000 0.000000 0.000000
vt 0.000000 30.000000 0.000000
vt 204.400000 30.000000 0.000000
vt 0.000000 0.000000 0.000000
vt 204.400000 0.000000 0.000000
vt 0.000000 30.000000 0.000000
vt 204.400000 30.000000 0.000000
vt -0.000000 0.000000 0.000000
vt 204.400000 0.000000 0.000000
vt -0.000000 30.000000 0.000000
vt 204.400000 30.000000 0.000000
vt -0.000000 0.000000 0.000000
vt 204.400000 0.000000 0.000000
vt -0.000000 30.000000 0.000000
vt 204.400000 30.000000 0.000000
vt -102.200000 102.200000 0.000000
vt 100.000000 100.000000 0.000000
vt 102.200000 102.200000 0.000000
vt 100.000000 1.100000 0.000000
vt 102.200000 -102.200000 0.000000
vt 100.000000 -1.100000 0.000000
vt 100.000000 -100.000000 0.000000
vt -102.200000 -102.200000 0.000000
vt -100.000000 1.100000 0.000000
vt -100.000000 100.000000 0.000000
vt -100.000000 -100.000000 0.000000
vt -100.000000 -1.100000 0.000000
vt -35.000000 -1.100000 0.000000
vt -35.000000 1.100000 0.000000
vt 35.000000 -1.100000 0.000000
vt 35.000000 1.100000 0.000000
vt 100.000000 -1.100000 0.000000
vt 102.200000 -102.200000 0.000000
vt 100.000000 1.100000 0.000000
vt 102.200000 102.200000 0.000000
vt 100.000000 100.000000 0.000000
vt -102.200000 102.200000 0.000000
vt -100.000000 100.000000 0.000000
vt -100.000000 1.100000 0.000000
vt -102.200000 -102.200000 0.000000
vt -100.000000 -1.100000 0.000000
vt -100.000000 -22.998908 0.000000
vt -100.000000 -25.000000 0.000000
vt -100.000000 -35.000000 0.000000
vt -100.000000 -37.000000 0.000000
vt -100.000000 -63.000000 0.000000
vt -100.000000 -65.000000 0.000000
vt -100.000000 -75.000000 0.000000
vt -100.000000 -77.001092 0.000000
vt -100.000000 -100.000000 0.000000
vt -27.000000 -100.000000 0.000000
vt -25.000000 -100.000000 0.000000
vt -15.000000 -100.000000 0.000000
vt -13.000000 -100.000000 0.000000
vt 13.000000 -100.000000 0.000000
vt 15.000000 -100.000000 0.000000
vt 25.000000 -100.000000 0.000000
vt 27.000000 -100.000000 0.000000
vt 100.000000 -100.000000 0.000000
vt 100.000000 -77.000000 0.000000
vt 100.000000 -75.000000 0.000000
vt 100.000000 -65.000000 0.000000
vt 100.000000 -63.000000 0.000000
vt 100.000000 -37.000000 0.000000
vt 100.000000 -35.000000 0.000000
vt 100.000000 -25.000000 0.000000
vt 100.000000 -23.000000 0.000000
vt 135.000000 2.000000 0.000000
vt 125.000000 2.000000 0.000000
vt 135.000000 1.990000 0.000000
vt 125.000000 1.990000 0.000000
vt 200.000000 0.000000 0.000000
vt 123.000000 1.990000 0.000000
vt 101.100000 2.000000 0.000000
vt 123.000000 2.000000 0.000000
vt 98.900000 2.000000 0.000000
vt 0.000000 0.000000 0.000000
vt 0.000000 2.000000 0.000000
vt 200.000000 2.000000 0.000000
vt 177.000000 1.990000 0.000000
vt 175.000000 1.990000 0.000000
vt 165.000000 1.990000 0.000000
vt 165.000000 2.000000 0.000000
vt 175.000000 2.000000 0.000000
vt 177.000000 2.000000 0.000000
vt 163.000000 1.990000 0.000000
vt 137.000000 1.990000 0.000000
vt 163.000000 2.000000 0.000000
vt 137.000000 2.000000 0.000000
vt 0.000000 0.000000 0.000000
vt 200.000000 0.000000 0.000000
vt 0.000000 2.000000 0.000000
vt 200.000000 2.000000 0.000000
vt 75.000000 2.000000 0.000000
vt 65.000000 2.000000 0.000000
vt 75.000000 1.990000 0.000000
vt 65.000000 1.990000 0.000000
vt 0.000000 0.000000 0.000000
vt 63.000000 1.990000 0.000000
vt 37.000000 1.990000 0.000000
vt 37.000000 2.000000 0.000000
vt 63.000000 2.000000 0.000000
vt 35.000000 1.990000 0.000000
vt 25.000000 1.990000 0.000000
vt 22.998908 1.990000 0.000000
vt 35.000000 2.000000 0.000000
vt 25.000000 2.000000 0.000000
vt 22.998908 2.000000 0.000000
vt 0.000000 2.000000 0.000000
vt 200.000000 0.000000 0.000000
vt 98.900000 2.000000 0.000000
vt 77.001092 1.990000 0.000000
vt 200.000000 2.000000 0.000000
vt 101.100000 2.000000 0.000000
vt 77.001092 2.000000 0.000000
vt 85.000000 2.000000 0.000000
vt 75.000000 2.000000 0.000000
vt 85.000000 1.990000 0.000000
vt 75.000000 1.990000 0.000000
vt 0.000000 0.000000 0.000000
vt 73.000000 1.990000 0.000000
vt 0.000000 2.000000 0.000000
vt 73.000000 2.000000 0.000000
vt 87.000000 1.990000 0.000000
vt 200.000000 0.000000 0.000000
vt 113.000000 1.990000 0.000000
vt 115.000000 1.990000 0.000000
vt 125.000000 1.990000 0.000000
vt 115.000000 2.000000 0.000000
vt 125.000000 2.000000 0.000000
vt 127.000000 1.990000 0.000000
vt 200.000000 2.000000 0.000000
vt 127.000000 2.000000 0.000000
vt 113.000000 2.000000 0.000000
vt 87.000000 2.000000 0.000000
vt -100.000000 -100.000000 0.000000
vt 100.000000 -100.000000 0.000000
vt -100.000000 100.000000 0.000000
vt 100.000000 100.000000 0.000000
vn -100.000000 0.000000 0.000000
vn -100.000000 0.000000 0.000000
vn -100.000000 0.000000 0.000000
vn -100.000000 0.000000 0.000000
vn 0.000000 100.000000 0.000000
vn 0.000000 100.000000 0.000000
vn 0.000000 100.000000 0.000000
vn 0.000000 100.000000 0.000000
vn 100.000000 -0.000000 0.000000
vn 100.000000 -0.000000 0.000000
vn 100.000000 -0.000000 0.000000
vn 100.000000 -0.000000 0.000000
vn 0.000000 -100.000000 0.000000
vn 0.000000 -100.000000 0.000000
vn 0.000000 -100.000000 0.000000
vn 0.000000 -100.000000 0.000000
vn -100.000000 0.000000 0.000000
vn -100.000000 0.000000 0.000000
vn -100.000000 0.000000 0.000000
vn -100.000000 0.000000 0.000000
vn 0.000000 -100.000000 0.000000
vn 0.000000 -100.000000 0.000000
vn 0.000000 -100.000000 0.000000
vn 0.000000 -100.000000 0.000000
vn 100.000000 -0.000000 0.000000
vn 100.000000 -0.000000 0.000000
vn 100.000000 -0.000000 0.000000
vn 100.000000 -0.000000 0.000000
vn 0.000000 100.000000 0.000000
vn 0.000000 100.000000 0.000000
vn 0.000000 100.000000 0.000000
vn 0.000000 100.000000 0.000000
vn 0.000000 0.000000 -100.000000
vn 0.000000 0.000000 -100.000000
vn 0.000000 0.000000 -100.000000
vn 0.000000 0.000000 -100.000000
vn 0.000000 0.000000 -100.000000
vn 0.000000 0.000000 -100.000000
vn 0.000000 0.000000 -100.000000
vn 0.000000 0.000000 -100.000000
vn 0.000000 0.000000 -100.000000
vn 0.000000 0.000000 -100.000000
vn 0.000000 0.000000 -100.000000
vn 0.000000 0.000000 -100.000000
vn 0.000000 0.000000 -100.000000
vn 0.000000 0.000000 -100.000000
vn 0.000000 0.000000 -100.000000
vn 0.000000 0.000000 -100.000000
vn 0.000000 0.000000 -100.000000
vn 0.000000 0.000000 -100.000000
vn 0.000000 0.000000 -100.000000
vn 0.000000 0.000000 -100.000000
vn 0.000000 0.000000 -100.000000
vn 0.000000 0.000000 -100.000000
vn 0.000000 0.000000 -100.000000
vn 0.000000 0.000000 -100.000000
vn 0.000000 0.000000 -100.000000
vn 0.000000 0.000000 -100.000000
vn 0.000000 0.000000 -100.000000
vn 0.000000 0.000000 -100.000000
vn 0.000000 100.000000 0.000000
vn 0.000000 100.000000 0.000000
vn 0.000000 100.000000 0.000000
vn 0.000000 100.000000 0.000000
vn 0.000000 0.000000 100.000000
vn 0.000000 0.000000 100.000000
vn 0.000000 0.000000 100.000000
vn 0.000000 0.000000 100.000000
vn 0.000000 -100.000000 -0.000000
vn 0.000000 -100.000000 -0.000000
vn 0.000000 -100.000000 -0.000000
vn 0.000000 -100.000000 -0.000000
vn 0.000000 -0.000000 -100.000000
vn 0.000000 -0.000000 -100.000000
vn 0.000000 -0.000000 -100.000000
vn 0.000000 -0.000000 -100.000000
vn 0.000000 -100.000000 -0.000000
vn 0.000000 -100.000000 -0.000000
vn 0.000000 -100.000000 -0.000000
vn 0.000000 -100.000000 -0.000000
vn 0.000000 0.000000 100.000000
vn 0.000000 0.000000 100.000000
vn 0.000000 0.000000 100.000000
vn 0.000000 0.000000 100.000000
vn 0.000000 100.000000 0.000000
vn 0.000000 100.000000 0.000000
vn 0.000000 100.000000 0.000000
vn 0.000000 100.000000 0.000000
vn 100.000000 0.000000 0.000000
vn 100.000000 0.000000 0.000000
vn 100.000000 0.000000 0.000000
vn 100.000000 0.000000 0.000000
vn 100.000000 0.000000 0.000000
vn 100.000000 0.000000 0.000000
vn 100.000000 0.000000 0.000000
vn 100.000000 0.000000 0.000000
vn 100.000000 0.000000 0.000000
vn 100.000000 0.000000 0.000000
vn 100.000000 0.000000 0.000000
vn 100.000000 0.000000 0.000000
vn 100.000000 0.000000 0.000000
vn 100.000000 0.000000 0.000000
vn 100.000000 0.000000 0.000000
vn 100.000000 0.000000 0.000000
vn 100.000000 0.000000 0.000000
vn 100.000000 0.000000 0.000000
vn 100.000000 0.000000 0.000000
vn 100.000000 0.000000 0.000000
vn 100.000000 0.000000 0.000000
vn 100.000000 0.000000 0.000000
vn 100.000000 0.000000 0.000000
vn 100.000000 0.000000 0.000000
vn 100.000000 0.000000 0.000000
vn 100.000000 0.000000 0.000000
vn 100.000000 0.000000 0.000000
vn 100.000000 0.000000 0.000000
vn 0.000000 100.000000 0.000000
vn 0.000000 100.000000 0.000000
vn 0.000000 100.000000 0.000000
vn 0.000000 100.000000 0.000000
vn -100.000000 0.000000 0.000000
vn -100.000000 0.000000 0.000000
vn -100.000000 0.000000 0.000000
vn -100.000000 0.000000 0.000000
vn 0.000000 -100.000000 0.000000
vn 0.000000 -100.000000 0.000000
vn 0.000000 -100.000000 0.000000
vn 0.000000 -100.000000 0.000000
vn 100.000000 0.000000 0.000000
vn 100.000000 0.000000 0.000000
vn 100.000000 0.000000 0.000000
vn 100.000000 0.000000 0.000000
vn 0.000000 -100.000000 0.000000
vn 0.000000 -100.000000 0.000000
vn 0.000000 -100.000000 0.000000
vn 0.000000 -100.000000 0.000000
vn -100.000000 0.000000 0.000000
vn -100.000000 0.000000 0.000000
vn -100.000000 0.000000 0.000000
vn -100.000000 0.000000 0.000000
vn 0.000000 100.000000 0.000000
vn 0.000000 100.000000 0.000000
vn 0.000000 100.000000 0.000000
vn 0.000000 100.000000 0.000000
vn 0.000000 0.000000 100.000000
vn 0.000000 0.000000 100.000000
vn 0.000000 0.000000 100.000000
vn 0.000000 0.000000 100.000000
vn 0.000000 0.000000 100.000000
vn 0.000000 0.000000 100.000000
vn 0.000000 0.000000 100.000000
vn 0.000000 0.000000 100.000000
vn 0.000000 -0.000000 100.000000
vn 0.000000 -0.000000 100.000000
vn 0.000000 -0.000000 100.000000
vn 0.000000 -0.000000 100.000000
vn 0.000000 -0.000000 100.000000
vn 0.000000 -0.000000 100.000000
vn 0.000000 -0.000000 100.000000
vn 0.000000 -0.000000 100.000000
vn 0.000000 -0.000000 100.000000
vn 0.000000 -0.000000 100.000000
vn 0.000000 -0.000000 100.000000
vn 0.000000 -0.000000 100.000000
vn 0.000000 -0.000000 100.000000
vn 0.000000 -0.000000 100.000000
vn 0.000000 -0.000000 100.000000
vn 0.000000 -0.000000 100.000000
vn -100.000000 0.000000 0.000000
vn -100.000000 0.000000 0.000000
vn -100.000000 0.000000 0.000000
vn -100.000000 0.000000 0.000000
vn 0.000000 0.000000 100.000000
vn 0.000000 0.000000 100.000000
vn 0.000000 0.000000 100.000000
vn 0.000000 0.000000 100.000000
vn 100.000000 0.000000 0.000000
vn 100.000000 0.000000 0.000000
vn 100.000000 0.000000 0.000000
vn 100.000000 0.000000 0.000000
vn -100.000000 0.000000 0.000000
vn -100.000000 0.000000 0.000000
vn -100.000000 0.000000 0.000000
vn -100.000000 0.000000 0.000000
vn 0.000000 0.000000 -100.000000
vn 0.000000 0.000000 -100.000000
vn 0.000000 0.000000 -100.000000
vn 0.000000 0.000000 -100.000000
vn 100.000000 0.000000 0.000000
vn 100.000000 0.000000 0.000000
vn 100.000000 0.000000 0.000000
vn 100.000000 0.000000 0.000000
vn -0.000000 100.000000 -0.000000
vn -0.000000 100.000000 -0.000000
vn -0.000000 100.000000 -0.000000
vn -0.000000 100.000000 -0.000000
vn -0.000000 100.000000 -0.000000
vn -0.000000 100.000000 -0.000000
vn -0.000000 100.000000 -0.000000
vn -0.000000 100.000000 -0.000000
vn -100.000000 0.000000 -0.000000
vn -100.000000 0.000000 -0.000000
vn -100.000000 0.000000 -0.000000
vn -100.000000 0.000000 -0.000000
vn 0.000000 0.000000 100.000000
vn 0.000000 0.000000 100.000000
vn 0.000000 0.000000 100.000000
vn 0.000000 0.000000 100.000000
vn 100.000000 0.000000 0.000000
vn 100.000000 0.000000 0.000000
vn 100.000000 0.000000 0.000000
vn 100.000000 0.000000 0.000000
vn -100.000000 0.000000 0.000000
vn -100.000000 0.000000 0.000000
vn -100.000000 0.000000 0.000000
vn -100.000000 0.000000 0.000000
vn 0.000000 0.000000 -100.000000
vn 0.000000 0.000000 -100.000000
vn 0.000000 0.000000 -100.000000
vn 0.000000 0.000000 -100.000000
vn 100.000000 0.000000 0.000000
vn 100.000000 0.000000 0.000000
vn 100.000000 0.000000 0.000000
vn 100.000000 0.000000 0.000000
vn -0.000000 100.000000 -0.000000
vn -0.000000 100.000000 -0.000000
vn -0.000000 100.000000 -0.000000
vn -0.000000 100.000000 -0.000000
vn -0.000000 100.000000 -0.000000
vn -0.000000 100.000000 -0.000000
vn -0.000000 100.000000 -0.000000
vn -0.000000 100.000000 -0.000000
vn 0.000000 0.000000 -100.000000
vn 0.000000 0.000000 -100.000000
vn 0.000000 0.000000 -100.000000
vn 0.000000 0.000000 -100.000000
vn 100.000000 0.000000 0.000000
vn 100.000000 0.000000 0.000000
vn 100.000000 0.000000 0.000000
vn 100.000000 0.000000 0.000000
vn 0.000000 0.000000 100.000000
vn 0.000000 0.000000 100.000000
vn 0.000000 0.000000 100.000000
vn 0.000000 0.000000 100.000000
vn -0.000000 0.000000 -100.000000
vn -0.000000 0.000000 -100.000000
vn -0.000000 0.000000 -100.000000
vn -0.000000 0.000000 -100.000000
vn -100.000000 0.000000 0.000000
vn -100.000000 0.000000 0.000000
vn -100.000000 0.000000 0.000000
vn -100.000000 0.000000 0.000000
vn -0.000000 0.000000 100.000000
vn -0.000000 0.000000 100.000000
vn -0.000000 0.000000 100.000000
vn -0.000000 0.000000 100.000000
vn -0.000000 100.000000 -0.000000
vn -0.000000 100.000000 -0.000000
vn -0.000000 100.000000 -0.000000
vn -0.000000 100.000000 -0.000000
vn -0.000000 100.000000 -0.000000
vn -0.000000 100.000000 -0.000000
vn -0.000000 100.000000 -0.000000
vn -0.000000 100.000000 -0.000000
vn -0.000000 0.000000 -100.000000
vn -0.000000 0.000000 -100.000000
vn -0.000000 0.000000 -100.000000
vn -0.000000 0.000000 -100.000000
vn -100.000000 0.000000 0.000000
vn -100.000000 0.000000 0.000000
vn -100.000000 0.000000 0.000000
vn -100.000000 0.000000 0.000000
vn -0.000000 0.000000 100.000000
vn -0.000000 0.000000 100.000000
vn -0.000000 0.000000 100.000000
vn -0.000000 0.000000 100.000000
vn 0.000000 0.000000 -100.000000
vn 0.000000 0.000000 -100.000000
vn 0.000000 0.000000 -100.000000
vn 0.000000 0.000000 -100.000000
vn 100.000000 0.000000 0.000000
vn 100.000000 0.000000 0.000000
vn 100.000000 0.000000 0.000000
vn 100.000000 0.000000 0.000000
vn 0.000000 0.000000 100.000000
vn 0.000000 0.000000 100.000000
vn 0.000000 0.000000 100.000000
vn 0.000000 0.000000 100.000000
vn -0.000000 100.000000 -0.000000
vn -0.000000 100.000000 -0.000000
vn -0.000000 100.000000 -0.000000
vn -0.000000 100.000000 -0.000000
vn -0.000000 100.000000 -0.000000
vn -0.000000 100.000000 -0.000000
vn -0.000000 100.000000 -0.000000
vn -0.000000 100.000000 -0.000000
vn 0.000000 0.000000 -100.000000
vn 0.000000 0.000000 -100.000000
vn 0.000000 0.000000 -100.000000
vn 0.000000 0.000000 -100.000000
vn -100.000000 0.000000 0.000000
vn -100.000000 0.000000 0.000000
vn -100.000000 0.000000 0.000000
vn -100.000000 0.000000 0.000000
vn 0.000000 0.000000 100.000000
vn 0.000000 0.000000 100.000000
vn 0.000000 0.000000 100.000000
vn 0.000000 0.000000 100.000000
vn 100.000000 0.000000 0.000000
vn 100.000000 0.000000 0.000000
vn 100.000000 0.000000 0.000000
vn 100.000000 0.000000 0.000000
vn -0.000000 0.000000 -100.000000
vn -0.000000 0.000000 -100.000000
vn -0.000000 0.000000 -100.000000
vn -0.000000 0.000000 -100.000000
vn -100.000000 0.000000 0.000000
vn -100.000000 0.000000 0.000000
vn -100.000000 0.000000 0.000000
vn -100.000000 0.000000 0.000000
vn 0.000000 0.000000 100.000000
vn 0.000000 0.000000 100.000000
vn 0.000000 0.000000 100.000000
vn 0.000000 0.000000 100.000000
vn -100.000000 0.000000 0.000000
vn -100.000000 0.000000 0.000000
vn -100.000000 0.000000 0.000000
vn -100.000000 0.000000 0.000000
vn -0.000000 100.000000 -0.000000
vn -0.000000 100.000000 -0.000000
vn -0.000000 100.000000 -0.000000
vn -0.000000 100.000000 -0.000000
vn -0.000000 100.000000 -0.000000
vn -0.000000 100.000000 -0.000000
vn -0.000000 100.000000 -0.000000
vn -0.000000 100.000000 -0.000000
vn 100.000000 0.000000 -0.000000
vn 100.000000 0.000000 -0.000000
vn 100.000000 0.000000 -0.000000
vn 100.000000 0.000000 -0.000000
vn 0.000000 0.000000 100.000000
vn 0.000000 0.000000 100.000000
vn 0.000000 0.000000 100.000000
vn 0.000000 0.000000 100.000000
vn -100.000000 0.000000 0.000000
vn -100.000000 0.000000 0.000000
vn -100.000000 0.000000 0.000000
vn -100.000000 0.000000 0.000000
vn 100.000000 0.000000 0.000000
vn 100.000000 0.000000 0.000000
vn 100.000000 0.000000 0.000000
vn 100.000000 0.000000 0.000000
vn 0.000000 0.000000 -100.000000
vn 0.000000 0.000000 -100.000000
vn 0.000000 0.000000 -100.000000
vn 0.000000 0.000000 -100.000000
vn -100.000000 0.000000 0.000000
vn -100.000000 0.000000 0.000000
vn -100.000000 0.000000 0.000000
vn -100.000000 0.000000 0.000000
vn -0.000000 100.000000 -0.000000
vn -0.000000 100.000000 -0.000000
vn -0.000000 100.000000 -0.000000
vn -0.000000 100.000000 -0.000000
vn -0.000000 100.000000 -0.000000
vn -0.000000 100.000000 -0.000000
vn -0.000000 100.000000 -0.000000
vn -0.000000 100.000000 -0.000000
vn 0.000000 0.000000 -100.000000
vn 0.000000 0.000000 -100.000000
vn 0.000000 0.000000 -100.000000
vn 0.000000 0.000000 -100.000000
vn -100.000000 0.000000 0.000000
vn -100.000000 0.000000 0.000000
vn -100.000000 0.000000 0.000000
vn -100.000000 0.000000 0.000000
vn 0.000000 0.000000 100.000000
vn 0.000000 0.000000 100.000000
vn 0.000000 0.000000 100.000000
vn 0.000000 0.000000 100.000000
vn -100.000000 0.000000 0.000000
vn -100.000000 0.000000 0.000000
vn -100.000000 0.000000 0.000000
vn -100.000000 0.000000 0.000000
vn 0.000000 0.000000 -100.000000
vn 0.000000 0.000000 -100.000000
vn 0.000000 0.000000 -100.000000
vn 0.000000 0.000000 -100.000000
vn -100.000000 0.000000 -0.000000
vn -100.000000 0.000000 -0.000000
vn -100.000000 0.000000 -0.000000
vn -100.000000 0.000000 -0.000000
vn 0.000000 0.000000 100.000000
vn 0.000000 0.000000 100.000000
vn 0.000000 0.000000 100.000000
vn 0.000000 0.000000 100.000000
vn 100.000000 0.000000 -0.000000
vn 100.000000 0.000000 -0.000000
vn 100.000000 0.000000 -0.000000
vn 100.000000 0.000000 -0.000000
vn -0.000000 100.000000 -0.000000
vn -0.000000 100.000000 -0.000000
vn -0.000000 100.000000 -0.000000
vn -0.000000 100.000000 -0.000000
vn -0.000000 100.000000 -0.000000
vn -0.000000 100.000000 -0.000000
vn -0.000000 100.000000 -0.000000
vn -0.000000 100.000000 -0.000000
vn 100.000000 0.000000 0.000000
vn 100.000000 0.000000 0.000000
vn 100.000000 0.000000 0.000000
vn 100.000000 0.000000 0.000000
vn 0.000000 0.000000 -100.000000
vn 0.000000 0.000000 -100.000000
vn 0.000000 0.000000 -100.000000
vn 0.000000 0.000000 -100.000000
vn -100.000000 0.000000 0.000000
vn -100.000000 0.000000 0.000000
vn -100.000000 0.000000 0.000000
vn -100.000000 0.000000 0.000000
vn 100.000000 0.000000 0.000000
vn 100.000000 0.000000 0.000000
vn 100.000000 0.000000 0.000000
vn 100.000000 0.000000 0.000000
vn 0.000000 0.000000 100.000000
vn 0.000000 0.000000 100.000000
vn 0.000000 0.000000 100.000000
vn 0.000000 0.000000 100.000000
vn -100.000000 0.000000 0.000000
vn -100.000000 0.000000 0.000000
vn -100.000000 0.000000 0.000000
vn -100.000000 0.000000 0.000000
vn -0.000000 100.000000 -0.000000
vn -0.000000 100.000000 -0.000000
vn -0.000000 100.000000 -0.000000
vn -0.000000 100.000000 -0.000000
vn -0.000000 100.000000 -0.000000
vn -0.000000 100.000000 -0.000000
vn -0.000000 100.000000 -0.000000
vn -0.000000 100.000000 -0.000000
vn 0.000000 100.000000 0.000000
vn 0.000000 100.000000 0.000000
vn 0.000000 100.000000 0.000000
vn 0.000000 100.000000 0.000000
vn 0.000000 100.000000 0.000000
vn 0.000000 100.000000 0.000000
vn 0.000000 100.000000 0.000000
vn 0.000000 100.000000 0.000000
vn 0.000000 100.000000 0.000000
vn 0.000000 100.000000 0.000000
vn 0.000000 100.000000 0.000000
vn 0.000000 100.000000 0.000000
vn 0.000000 100.000000 0.000000
vn 0.000000 100.000000 0.000000
vn 0.000000 100.000000 0.000000
vn 0.000000 100.000000 0.000000
vn 0.000000 100.000000 0.000000
vn 0.000000 100.000000 0.000000
vn 0.000000 100.000000 0.000000
vn 0.000000 100.000000 0.000000
vn 0.000000 100.000000 0.000000
vn 0.000000 100.000000 0.000000
vn 0.000000 100.000000 0.000000
vn 0.000000 100.000000 0.000000
vn 0.000000 100.000000 0.000000
vn 0.000000 100.000000 0.000000
vn 0.000000 100.000000 0.000000
vn 0.000000 100.000000 0.000000
vn 0.000000 100.000000 0.000000
vn 0.000000 100.000000 0.000000
vn 0.000000 100.000000 0.000000
vn 0.000000 100.000000 0.000000
vn 0.000000 100.000000 0.000000
vn 0.000000 100.000000 0.000000
vn 0.000000 100.000000 0.000000
vn 0.000000 100.000000 0.000000
vn 0.000000 100.000000 0.000000
vn 0.000000 100.000000 0.000000
vn 0.000000 100.000000 0.000000
vn 0.000000 100.000000 0.000000
vn 0.000000 100.000000 0.000000
vn 0.000000 100.000000 0.000000
vn 0.000000 100.000000 0.000000
vn 0.000000 100.000000 0.000000
vn 0.000000 100.000000 0.000000
vn 0.000000 100.000000 0.000000
vn 0.000000 100.000000 0.000000
vn 0.000000 100.000000 0.000000
vn 0.000000 100.000000 0.000000
vn 0.000000 100.000000 0.000000
vn 0.000000 100.000000 0.000000
vn 0.000000 100.000000 0.000000
vn 0.000000 100.000000 0.000000
vn 0.000000 100.000000 0.000000
vn 0.000000 100.000000 0.000000
vn 0.000000 100.000000 0.000000
vn 0.000000 100.000000 0.000000
vn 0.000000 100.000000 0.000000
vn 0.000000 100.000000 0.000000
vn 0.000000 100.000000 0.000000
vn 0.000000 100.000000 0.000000
vn 0.000000 100.000000 0.000000
vn 0.000000 100.000000 0.000000
vn 0.000000 100.000000 0.000000
vn 0.000000 100.000000 0.000000
vn 0.000000 100.000000 0.000000
vn 0.000000 100.000000 0.000000
vn 0.000000 100.000000 0.000000
vn 0.000000 100.000000 0.000000
vn 0.000000 100.000000 0.000000
vn 0.000000 100.000000 0.000000
vn 0.000000 100.000000 0.000000
vn 0.000000 100.000000 0.000000
vn 0.000000 100.000000 0.000000
vn 0.000000 100.000000 0.000000
vn 0.000000 100.000000 0.000000
vn 100.000000 -0.000000 0.000000
vn 100.000000 -0.000000 0.000000
vn 100.000000 -0.000000 0.000000
vn 100.000000 -0.000000 0.000000
vn 0.000000 0.000000 -100.000000
vn 0.000000 0.000000 -100.000000
vn 0.000000 0.000000 -100.000000
vn 0.000000 0.000000 -100.000000
vn -100.000000 0.000000 0.000000
vn -100.000000 0.000000 0.000000
vn -100.000000 0.000000 0.000000
vn -100.000000 0.000000 0.000000
vn 0.000000 -0.000000 100.000000
vn 0.000000 -0.000000 100.000000
vn 0.000000 -0.000000 100.000000
vn 0.000000 -0.000000 100.000000
vn 100.000000 0.000000 -0.000000
vn 100.000000 0.000000 -0.000000
vn 100.000000 0.000000 -0.000000
vn 100.000000 0.000000 -0.000000
vn 0.000000 0.000000 100.000000
vn 0.000000 0.000000 100.000000
vn 0.000000 0.000000 100.000000
vn 0.000000 0.000000 100.000000
vn -100.000000 0.000000 0.000000
vn -100.000000 0.000000 0.000000
vn -100.000000 0.000000 0.000000
vn -100.000000 0.000000 0.000000
vn 0.000000 -0.000000 100.000000
vn 0.000000 -0.000000 100.000000
vn 0.000000 -0.000000 100.000000
vn 0.000000 -0.000000 100.000000
vn 100.000000 0.000000 0.000000
vn 100.000000 0.000000 0.000000
vn 100.000000 0.000000 0.000000
vn 100.000000 0.000000 0.000000
vn 0.000000 0.000000 -100.000000
vn 0.000000 0.000000 -100.000000
vn 0.000000 0.000000 -100.000000
vn 0.000000 0.000000 -100.000000
vn -100.000000 0.000000 0.000000
vn -100.000000 0.000000 0.000000
vn -100.000000 0.000000 0.000000
vn -100.000000 0.000000 0.000000
vn 0.000000 0.000000 -100.000000
vn 0.000000 0.000000 -100.000000
vn 0.000000 0.000000 -100.000000
vn 0.000000 0.000000 -100.000000
vn 0.000000 -0.000000 100.000000
vn 0.000000 -0.000000 100.000000
vn 0.000000 -0.000000 100.000000
vn 0.000000 -0.000000 100.000000
vn -100.000000 0.000000 0.000000
vn -100.000000 0.000000 0.000000
vn -100.000000 0.000000 0.000000
vn -100.000000 0.000000 0.000000
vn 0.000000 0.000000 -100.000000
vn 0.000000 0.000000 -100.000000
vn 0.000000 0.000000 -100.000000
vn 0.000000 0.000000 -100.000000
vn 100.000000 0.000000 0.000000
vn 100.000000 0.000000 0.000000
vn 100.000000 0.000000 0.000000
vn 100.000000 0.000000 0.000000
vn 0.000000 100.000000 0.000000
vn 0.000000 100.000000 0.000000
vn 0.000000 100.000000 0.000000
vn 0.000000 100.000000 0.000000
vn 0.000000 100.000000 0.000000
vn 0.000000 100.000000 0.000000
vn 0.000000 100.000000 0.000000
vn 0.000000 100.000000 0.000000
vn 0.000000 100.000000 0.000000
vn 0.000000 100.000000 0.000000
vn 0.000000 100.000000 0.000000
vn 0.000000 100.000000 0.000000
vn 0.000000 100.000000 0.000000
vn 0.000000 100.000000 0.000000
vn 0.000000 100.000000 0.000000
vn 0.000000 100.000000 0.000000
vn 0.000000 -100.000000 0.000000
vn 0.000000 -100.000000 0.000000
vn 0.000000 -100.000000 0.000000
vn 0.000000 -100.000000 0.000000
vn 0.000000 -100.000000 0.000000
vn 0.000000 -100.000000 0.000000
vn 0.000000 -100.000000 0.000000
vn 0.000000 -100.000000 0.000000
vn 0.000000 -100.000000 0.000000
vn 0.000000 -100.000000 0.000000
vn 0.000000 -100.000000 0.000000
vn 0.000000 -100.000000 0.000000
vn 0.000000 -100.000000 0.000000
vn 0.000000 -100.000000 0.000000
vn 0.000000 -100.000000 0.000000
vn 0.000000 -100.000000 0.000000
vn 0.000000 -100.000000 0.000000
vn 0.000000 -100.000000 0.000000
vn 0.000000 -100.000000 0.000000
vn 0.000000 -100.000000 0.000000
vn 0.000000 -100.000000 0.000000
vn 0.000000 -100.000000 0.000000
vn 0.000000 -100.000000 0.000000
vn 0.000000 -100.000000 0.000000
vn 0.000000 -100.000000 0.000000
vn 0.000000 -100.000000 0.000000
vn 0.000000 -100.000000 0.000000
vn 0.000000 -100.000000 0.000000
vn 0.000000 -100.000000 0.000000
vn 0.000000 -100.000000 0.000000
vn 0.000000 -100.000000 0.000000
vn 0.000000 -100.000000 0.000000
vn 0.000000 -100.000000 0.000000
vn 0.000000 -100.000000 0.000000
vn 0.000000 -100.000000 0.000000
vn 0.000000 -100.000000 0.000000
vn 0.000000 0.000000 -100.000000
vn 0.000000 0.000000 -100.000000
vn 0.000000 0.000000 -100.000000
vn 0.000000 0.000000 -100.000000
vn 0.000000 0.000000 -100.000000
vn 0.000000 0.000000 -100.000000
vn 0.000000 0.000000 -100.000000
vn 0.000000 0.000000 -100.000000
vn 0.000000 0.000000 -100.000000
vn 0.000000 0.000000 -100.000000
vn 0.000000 0.000000 -100.000000
vn 0.000000 0.000000 -100.000000
vn 0.000000 0.000000 -100.000000
vn 0.000000 0.000000 -100.000000
vn 0.000000 0.000000 -100.000000
vn 0.000000 0.000000 -100.000000
vn 0.000000 0.000000 -100.000000
vn 0.000000 0.000000 -100.000000
vn 0.000000 0.000000 -100.000000
vn 0.000000 0.000000 -100.000000
vn 0.000000 0.000000 -100.000000
vn 0.000000 0.000000 -100.000000
vn 100.000000 -0.000000 0.000000
vn 100.000000 -0.000000 0.000000
vn 100.000000 -0.000000 0.000000
vn 100.000000 -0.000000 0.000000
vn 0.000000 0.000000 100.000000
vn 0.000000 0.000000 100.000000
vn 0.000000 0.000000 100.000000
vn 0.000000 0.000000 100.000000
vn 0.000000 0.000000 100.000000
vn 0.000000 0.000000 100.000000
vn 0.000000 0.000000 100.000000
vn 0.000000 0.000000 100.000000
vn 0.000000 0.000000 100.000000
vn 0.000000 0.000000 100.000000
vn 0.000000 0.000000 100.000000
vn 0.000000 0.000000 100.000000
vn 0.000000 0.000000 100.000000
vn 0.000000 0.000000 100.000000
vn 0.000000 0.000000 100.000000
vn 0.000000 0.000000 100.000000
vn 0.000000 0.000000 100.000000
vn 0.000000 0.000000 100.000000
vn 0.000000 0.000000 100.000000
vn 0.000000 0.000000 100.000000
vn 0.000000 0.000000 100.000000
vn 0.000000 0.000000 100.000000
vn -100.000000 0.000000 0.000000
vn -100.000000 0.000000 0.000000
vn -100.000000 0.000000 0.000000
vn -100.000000 0.000000 0.000000
vn -100.000000 0.000000 0.000000
vn -100.000000 0.000000 0.000000
vn -100.000000 0.000000 0.000000
vn -100.000000 0.000000 0.000000
vn -100.000000 0.000000 0.000000
vn -100.000000 0.000000 0.000000
vn -100.000000 0.000000 0.000000
vn -100.000000 0.000000 0.000000
vn -100.000000 0.000000 0.000000
vn -100.000000 0.000000 0.000000
vn -100.000000 0.000000 0.000000
vn -100.000000 0.000000 0.000000
vn -100.000000 0.000000 0.000000
vn -100.000000 0.000000 0.000000
vn -100.000000 0.000000 0.000000
vn -100.000000 0.000000 0.000000
vn 0.000000 -100.000000 0.000000
vn 0.000000 -100.000000 0.000000
vn 0.000000 -100.000000 0.000000
vn 0.000000 -100.000000 0.000000
usemtl 191,191,191
f 1/1/1 2/2/2 4/3/3
f 4/3/3 2/2/2 3/4/4
f 5/5/5 1/6/6 6/7/7
f 6/7/7 1/6/6 4/8/8
f 7/9/9 5/10/10 8/11/11
f 8/11/11 5/10/10 6/12/12
f 2/13/13 7/14/14 3/15/15
f 3/15/15 7/14/14 8/16/16
f 9/17/17 10/18/18 12/19/19
f 12/19/19 10/18/18 11/20/20
f 13/21/21 9/22/22 14/23/23
f 14/23/23 9/22/22 12/24/24
f 15/25/25 13/26/26 16/27/27
f 16/27/27 13/26/26 14/28/28
f 10/29/29 15/30/30 11/31/31
f 11/31/31 15/30/30 16/32/32
usemtl 10,10,10
f 12/33/33 11/34/34 8/35/35
f 8/35/35 11/34/34 16/36/36
f 8/35/35 16/36/36 3/37/37
f 3/37/37 16/36/36 14/38/38
f 3/37/37 14/38/38 4/39/39
f 4/39/39 14/38/38 12/33/33
f 4/39/39 12/33/33 6/40/40
f 6/40/40 12/33/33 8/35/35
usemtl 191,191,191
f 28/41/41 17/42/42 9/43/43
f 9/43/43 17/42/42 18/44/44
f 9/43/43 18/44/44 19/45/45
f 9/43/43 19/45/45 10/46/46
f 10/46/46 19/45/45 20/47/47
f 10/46/46 20/47/47 15/48/48
f 15/48/48 20/47/47 13/49/49
f 13/49/49 20/47/47 21/50/50
f 13/49/49 21/50/50 22/51/51
f 22/51/51 23/52/52 13/49/49
f 13/49/49 23/52/52 24/53/53
f 13/49/49 24/53/53 25/54/54
f 25/54/54 26/55/55 13/49/49
f 13/49/49 26/55/55 9/43/43
f 9/43/43 26/55/55 27/56/56
f 9/43/43 27/56/56 28/41/41
f 29/57/57 30/58/58 32/59/59
f 32/59/59 30/58/58 31/60/60
f 33/61/61 29/62/62 34/63/63
f 34/63/63 29/62/62 32/64/64
f 35/65/65 33/66/66 36/67/67
f 36/67/67 33/66/66 34/68/68
f 30/69/69 35/70/70 31/71/71
f 31/71/71 35/70/70 36/72/72
f 37/73/73 38/74/74 40/75/75
f 40/75/75 38/74/74 39/76/76
f 41/77/77 37/78/78 42/79/79
f 42/79/79 37/78/78 40/80/80
f 43/81/81 41/82/82 44/83/83
f 44/83/83 41/82/82 42/84/84
f 38/85/85 43/86/86 39/87/87
f 39/87/87 43/86/86 44/88/88
usemtl 10,10,10
f 40/89/89 39/90/90 36/91/91
f 36/91/91 39/90/90 44/92/92
f 36/91/91 44/92/92 31/93/93
f 31/93/93 44/92/92 42/94/94
f 31/93/93 42/94/94 32/95/95
f 32/95/95 42/94/94 40/89/89
f 32/95/95 40/89/89 34/96/96
f 34/96/96 40/89/89 36/91/91
usemtl 191,191,191
f 54/97/97 45/98/98 37/99/99
f 37/99/99 45/98/98 46/100/100
f 37/99/99 46/100/100 38/101/101
f 38/101/101 46/100/100 47/102/102
f 38/101/101 47/102/102 19/103/103
f 38/101/101 19/103/103 43/104/104
f 43/104/104 19/103/103 18/105/105
f 43/104/104 18/105/105 41/106/106
f 41/106/106 18/105/105 48/107/107
f 41/106/106 48/107/107 49/108/108
f 49/108/108 50/109/109 41/106/106
f 41/106/106 50/109/109 51/110/110
f 41/106/106 51/110/110 52/111/111
f 41/106/106 52/111/111 37/99/99
f 37/99/99 52/111/111 53/112/112
f 37/99/99 53/112/112 54/97/97
f 55/113/113 56/114/114 58/115/115
f 58/115/115 56/114/114 57/116/116
f 59/117/117 55/118/118 60/119/119
f 60/119/119 55/118/118 58/120/120
f 61/121/121 59/122/122 62/123/123
f 62/123/123 59/122/122 60/124/124
f 56/125/125 61/126/126 57/127/127
f 57/127/127 61/126/126 62/128/128
f 63/129/129 64/130/130 66/131/131
f 66/131/131 64/130/130 65/132/132
f 67/133/133 63/134/134 68/135/135
f 68/135/135 63/134/134 66/136/136
f 69/137/137 67/138/138 70/139/139
f 70/139/139 67/138/138 68/140/140
f 64/141/141 69/142/142 65/143/143
f 65/143/143 69/142/142 70/144/144
usemtl 10,10,10
f 66/145/145 65/146/146 62/147/147
f 62/147/147 65/146/146 70/148/148
f 62/147/147 70/148/148 57/149/149
f 57/149/149 70/148/148 68/150/150
f 57/149/149 68/150/150 58/151/151
f 58/151/151 68/150/150 66/145/145
f 58/151/151 66/145/145 60/152/152
f 60/152/152 66/145/145 62/147/147
usemtl 191,191,191
f 80/153/153 71/154/154 63/155/155
f 63/155/155 71/154/154 72/156/156
f 63/155/155 72/156/156 64/157/157
f 64/157/157 72/156/156 73/158/158
f 64/157/157 73/158/158 69/159/159
f 69/159/159 73/158/158 47/160/160
f 69/159/159 47/160/160 46/161/161
f 69/159/159 46/161/161 67/162/162
f 67/162/162 46/161/161 74/163/163
f 67/162/162 74/163/163 75/164/164
f 75/164/164 76/165/165 67/162/162
f 67/162/162 76/165/165 77/166/166
f 67/162/162 77/166/166 78/167/167
f 67/162/162 78/167/167 63/155/155
f 63/155/155 78/167/167 79/168/168
f 63/155/155 79/168/168 80/153/153
f 22/169/169 81/170/170 83/171/171
f 83/171/171 81/170/170 82/172/172
f 81/173/173 84/174/174 82/175/175
f 82/175/175 84/174/174 85/176/176
f 84/177/177 17/178/178 85/179/179
f 85/179/179 17/178/178 86/180/180
f 28/181/181 87/182/182 89/183/183
f 89/183/183 87/182/182 88/184/184
f 87/185/185 90/186/186 88/187/187
f 88/187/187 90/186/186 91/188/188
f 90/189/189 23/190/190 91/191/191
f 91/191/191 23/190/190 92/192/192
usemtl 10,10,10
f 92/193/193 83/194/194 91/195/195
f 91/195/195 83/194/194 82/196/196
f 91/195/195 82/196/196 85/197/197
f 91/195/195 85/197/197 88/198/198
f 88/198/198 85/197/197 86/199/199
f 88/198/198 86/199/199 89/200/200
usemtl 191,191,191
f 24/201/201 93/202/202 95/203/203
f 95/203/203 93/202/202 94/204/204
f 93/205/205 96/206/206 94/207/207
f 94/207/207 96/206/206 97/208/208
f 96/209/209 27/210/210 97/211/211
f 97/211/211 27/210/210 98/212/212
f 26/213/213 99/214/214 101/215/215
f 101/215/215 99/214/214 100/216/216
f 99/217/217 102/218/218 100/219/219
f 100/219/219 102/218/218 103/220/220
f 102/221/221 25/222/222 103/223/223
f 103/223/223 25/222/222 104/224/224
usemtl 10,10,10
f 104/225/225 95/226/226 103/227/227
f 103/227/227 95/226/226 94/228/228
f 103/227/227 94/228/228 97/229/229
f 103/227/227 97/229/229 100/230/230
f 100/230/230 97/229/229 98/231/231
f 100/230/230 98/231/231 101/232/232
usemtl 191,191,191
f 52/233/233 105/234/234 107/235/235
f 107/235/235 105/234/234 106/236/236
f 105/237/237 108/238/238 106/239/239
f 106/239/239 108/238/238 109/240/240
f 108/241/241 51/242/242 109/243/243
f 109/243/243 51/242/242 110/244/244
f 50/245/245 111/246/246 113/247/247
f 113/247/247 111/246/246 112/248/248
f 111/249/249 114/250/250 112/251/251
f 112/251/251 114/250/250 115/252/252
f 114/253/253 53/254/254 115/255/255
f 115/255/255 53/254/254 116/256/256
usemtl 10,10,10
f 116/257/257 106/258/258 115/259/259
f 115/259/259 106/258/258 109/260/260
f 115/259/259 109/260/260 112/261/261
f 112/261/261 109/260/260 113/262/262
f 113/262/262 109/260/260 110/263/263
f 116/257/257 107/264/264 106/258/258
usemtl 191,191,191
f 48/265/265 117/266/266 119/267/267
f 119/267/267 117/266/266 118/268/268
f 117/269/269 120/270/270 118/271/271
f 118/271/271 120/270/270 121/272/272
f 120/273/273 45/274/274 121/275/275
f 121/275/275 45/274/274 122/276/276
f 54/277/277 123/278/278 125/279/279
f 125/279/279 123/278/278 124/280/280
f 123/281/281 126/282/282 124/283/283
f 124/283/283 126/282/282 127/284/284
f 126/285/285 49/286/286 127/287/287
f 127/287/287 49/286/286 128/288/288
usemtl 10,10,10
f 128/289/289 119/290/290 127/291/291
f 127/291/291 119/290/290 118/292/292
f 127/291/291 118/292/292 121/293/293
f 127/291/291 121/293/293 124/294/294
f 124/294/294 121/293/293 122/295/295
f 124/294/294 122/295/295 125/296/296
usemtl 191,191,191
f 129/297/297 130/298/298 132/299/299
f 132/299/299 130/298/298 131/300/300
f 130/301/301 133/302/302 131/303/303
f 131/303/303 133/302/302 134/304/304
f 133/305/305 135/306/306 134/307/307
f 134/307/307 135/306/306 136/308/308
f 135/309/309 137/310/310 136/311/311
f 136/311/311 137/310/310 138/312/312
f 137/313/313 139/314/314 138/315/315
f 138/315/315 139/314/314 140/316/316
f 139/317/317 141/318/318 140/319/319
f 140/319/319 141/318/318 142/320/320
f 141/321/321 143/322/322 142/323/323
f 142/323/323 143/322/322 144/324/324
f 143/325/325 129/326/326 144/327/327
f 144/327/327 129/326/326 132/328/328
usemtl 10,10,10
f 132/329/329 138/330/330 144/331/331
f 144/331/331 138/330/330 140/332/332
f 144/331/331 140/332/332 142/333/333
f 131/334/334 134/335/335 132/329/329
f 132/329/329 134/335/335 136/336/336
f 132/329/329 136/336/336 138/330/330
usemtl 191,191,191
f 78/337/337 145/338/338 147/339/339
f 147/339/339 145/338/338 146/340/340
f 145/341/341 148/342/342 146/343/343
f 146/343/343 148/342/342 149/344/344
f 148/345/345 77/346/346 149/347/347
f 149/347/347 77/346/346 150/348/348
f 76/349/349 151/350/350 153/351/351
f 153/351/351 151/350/350 152/352/352
f 151/353/353 154/354/354 152/355/355
f 152/355/355 154/354/354 155/356/356
f 154/357/357 79/358/358 155/359/359
f 155/359/359 79/358/358 156/360/360
usemtl 58,22,22
f 152/361/361 155/362/362 146/363/363
f 146/363/363 155/362/362 156/364/364
f 146/363/363 156/364/364 147/365/365
f 146/363/363 149/366/366 152/361/361
f 152/361/361 149/366/366 153/367/367
f 153/367/367 149/366/366 150/368/368
usemtl 191,191,191
f 157/369/369 158/370/370 160/371/371
f 160/371/371 158/370/370 159/372/372
f 158/373/373 161/374/374 159/375/375
f 159/375/375 161/374/374 162/376/376
f 161/377/377 163/378/378 162/379/379
f 162/379/379 163/378/378 164/380/380
f 163/381/381 165/382/382 164/383/383
f 164/383/383 165/382/382 166/384/384
f 165/385/385 167/386/386 166/387/387
f 166/387/387 167/386/386 168/388/388
f 167/389/389 169/390/390 168/391/391
f 168/391/391 169/390/390 170/392/392
f 169/393/393 171/394/394 170/395/395
f 170/395/395 171/394/394 172/396/396
f 171/397/397 157/398/398 172/399/399
f 172/399/399 157/398/398 160/400/400
usemtl 10,10,10
f 170/401/401 172/402/402 166/403/403
f 166/403/403 172/402/402 160/404/404
f 166/403/403 160/404/404 164/405/405
f 164/405/405 160/404/404 159/406/406
f 164/405/405 159/406/406 162/407/407
f 166/403/403 168/408/408 170/401/401
usemtl 191,191,191
f 74/409/409 173/410/410 175/411/411
f 175/411/411 173/410/410 174/412/412
f 173/413/413 176/414/414 174/415/415
f 174/415/415 176/414/414 177/416/416
f 176/417/417 71/418/418 177/419/419
f 177/419/419 71/418/418 178/420/420
f 80/421/421 179/422/422 181/423/423
f 181/423/423 179/422/422 180/424/424
f 179/425/425 182/426/426 180/427/427
f 180/427/427 182/426/426 183/428/428
f 182/429/429 75/430/430 183/431/431
f 183/431/431 75/430/430 184/432/432
usemtl 10,10,10
f 184/433/433 175/434/434 183/435/435
f 183/435/435 175/434/434 174/436/436
f 183/435/435 174/436/436 180/437/437
f 180/437/437 174/436/436 177/438/438
f 180/437/437 177/438/438 178/439/439
f 178/439/439 181/440/440 180/437/437
usemtl 191,191,191
f 145/441/441 78/442/442 148/443/443
f 148/443/443 78/442/442 77/444/444
f 79/445/445 154/446/446 80/447/447
f 80/447/447 154/446/446 179/448/448
f 179/448/448 154/446/446 182/449/449
f 182/449/449 154/446/446 151/450/450
f 182/449/449 151/450/450 75/451/451
f 75/451/451 151/450/450 76/452/452
f 52/453/453 51/454/454 105/455/455
f 105/455/455 51/454/454 108/456/456
f 53/457/457 114/458/458 54/459/459
f 54/459/459 114/458/458 123/460/460
f 123/460/460 114/458/458 111/461/461
f 123/460/460 111/461/461 126/462/462
f 126/462/462 111/461/461 49/463/463
f 49/463/463 111/461/461 50/464/464
f 25/465/465 102/466/466 26/467/467
f 26/467/467 102/466/466 99/468/468
f 22/469/469 21/470/470 81/471/471
f 81/471/471 21/470/470 185/472/472
f 81/471/471 185/472/472 117/473/473
f 117/473/473 185/472/472 120/474/474
f 120/474/474 185/472/472 192/475/475
f 120/474/474 192/475/475 176/476/476
f 176/476/476 192/475/475 72/477/477
f 176/476/476 72/477/477 71/478/478
f 192/475/475 185/472/472 191/479/479
f 191/479/479 185/472/472 186/480/480
f 191/479/479 186/480/480 137/481/481
f 137/481/481 186/480/480 139/482/482
f 139/482/482 186/480/480 171/483/483
f 139/482/482 171/483/483 169/484/484
f 186/480/480 187/485/485 171/483/483
f 171/483/483 187/485/485 157/486/486
f 157/486/486 187/485/485 158/487/487
f 158/487/487 187/485/485 188/488/488
f 158/487/487 188/488/488 161/489/489
f 161/489/489 188/488/488 167/490/490
f 161/489/489 167/490/490 163/491/491
f 163/491/491 167/490/490 165/492/492
f 167/490/490 188/488/488 169/484/484
f 169/484/484 188/488/488 189/493/493
f 169/484/484 189/493/493 139/482/482
f 139/482/482 189/493/493 141/494/494
f 141/494/494 189/493/493 130/495/495
f 141/494/494 130/495/495 143/496/496
f 143/496/496 130/495/495 129/497/497
f 130/495/495 189/493/493 133/498/498
f 133/498/498 189/493/493 190/499/499
f 133/498/498 190/499/499 135/500/500
f 135/500/500 190/499/499 137/481/481
f 137/481/481 190/499/499 191/479/479
f 176/476/476 173/501/501 120/474/474
f 120/474/474 173/501/501 45/502/502
f 45/502/502 173/501/501 46/503/503
f 46/503/503 173/501/501 74/504/504
f 81/471/471 117/473/473 84/505/505
f 84/505/505 117/473/473 48/506/506
f 84/505/505 48/506/506 18/507/507
f 18/507/507 17/508/508 84/505/505
f 24/509/509 23/510/510 93/511/511
f 93/511/511 23/510/510 90/512/512
f 93/511/511 90/512/512 87/513/513
f 93/511/511 87/513/513 96/514/514
f 96/514/514 87/513/513 28/515/515
f 96/514/514 28/515/515 27/516/516
f 187/517/517 186/518/518 194/519/519
f 194/519/519 186/518/518 193/520/520
f 188/521/521 187/522/522 195/523/523
f 195/523/523 187/522/522 194/524/524
f 189/525/525 188/526/526 196/527/527
f 196/527/527 188/526/526 195/528/528
f 190/529/529 189/530/530 197/531/531
f 197/531/531 189/530/530 196/532/532
f 191/533/533 190/534/534 198/535/535
f 198/535/535 190/534/534 197/536/536
f 192/537/537 191/538/538 199/539/539
f 199/539/539 191/538/538 198/540/540
f 72/541/541 192/542/542 73/543/543
f 73/543/543 192/542/542 199/544/544
usemtl 226,220,42
f 55/545/545 59/546/546 56/547/547
f 56/547/547 59/546/546 61/548/548
usemtl 13,157,13
f 29/549/549 33/550/550 30/551/551
f 30/551/551 33/550/550 35/552/552
usemtl 24,37,248
f 1/553/553 5/554/554 2/555/555
f 2/555/555 5/554/554 7/556/556
usemtl 191,191,191
f 185/557/557 21/558/558 200/559/559
f 200/559/559 21/558/558 20/560/560
f 186/561/561 185/562/562 193/563/563
f 193/563/563 185/562/562 200/564/564
f 201/565/565 202/566/566 204/567/567
f 204/567/567 202/566/566 203/568/568
f 205/569/569 201/570/570 206/571/571
f 206/571/571 201/570/570 204/572/572
f 207/573/573 205/574/574 208/575/575
f 208/575/575 205/574/574 206/576/576
f 202/577/577 207/578/578 203/579/579
f 203/579/579 207/578/578 208/580/580
f 208/581/581 195/582/582 203/583/583
f 203/583/583 195/582/582 194/584/584
f 203/583/583 194/584/584 204/585/585
f 204/585/585 194/584/584 20/586/586
f 204/585/585 20/586/586 19/587/587
f 206/588/588 197/589/589 208/581/581
f 208/581/581 197/589/589 196/590/590
f 208/581/581 196/590/590 195/582/582
f 204/585/585 47/591/591 206/588/588
f 206/588/588 47/591/591 73/592/592
f 206/588/588 73/592/592 197/589/589
f 197/589/589 73/592/592 199/593/593
f 197/589/589 199/593/593 198/594/594
f 200/595/595 20/586/586 193/596/596
f 193/596/596 20/586/586 194/584/584
f 19/587/587 47/591/591 204/585/585
f 72/597/597 205/598/598 190/599/599
f 190/599/599 205/598/598 207/600/600
f 190/599/599 207/600/600 189/601/601
f 189/601/601 207/600/600 202/602/602
f 189/601/601 202/602/602 188/603/603
f 188/603/603 202/602/602 187/604/604
f 187/604/604 202/602/602 201/605/605
f 187/604/604 201/605/605 21/606/606
f 21/606/606 201/605/605 22/607/607
f 22/607/607 201/605/605 23/608/608
f 23/608/608 201/605/605 24/609/609
f 24/609/609 201/605/605 25/610/610
f 25/610/610 201/605/605 26/611/611
f 26/611/611 201/605/605 27/612/612
f 27/612/612 201/605/605 28/613/613
f 28/613/613 201/605/605 17/614/614
f 17/614/614 201/605/605 18/615/615
f 18/615/615 201/605/605 48/616/616
f 48/616/616 201/605/605 49/617/617
f 49/617/617 201/605/605 50/618/618
f 50/618/618 201/605/605 51/619/619
f 51/619/619 201/605/605 205/598/598
f 51/619/619 205/598/598 52/620/620
f 52/620/620 205/598/598 53/621/621
f 53/621/621 205/598/598 54/622/622
f 54/622/622 205/598/598 45/623/623
f 45/623/623 205/598/598 46/624/624
f 46/624/624 205/598/598 74/625/625
f 74/625/625 205/598/598 75/626/626
f 75/626/626 205/598/598 76/627/627
f 76/627/627 205/598/598 77/628/628
f 77/628/628 205/598/598 78/629/629
f 78/629/629 205/598/598 79/630/630
f 79/630/630 205/598/598 80/631/631
f 80/631/631 205/598/598 71/632/632
f 71/632/632 205/598/598 72/597/597
f 79/633/633 80/634/634 156/635/635
f 156/635/635 80/634/634 181/636/636
f 156/635/635 181/636/636 210/637/637
f 210/637/637 181/636/636 178/638/638
f 210/637/637 178/638/638 72/639/639
f 72/639/639 178/638/638 71/640/640
f 72/639/639 190/641/641 210/637/637
f 210/637/637 190/641/641 209/642/642
f 209/642/642 190/641/641 189/643/643
f 46/644/644 175/645/645 210/637/637
f 210/637/637 175/645/645 184/646/646
f 210/637/637 184/646/646 153/647/647
f 153/647/647 184/646/646 76/648/648
f 76/648/648 184/646/646 75/649/649
f 46/644/644 74/650/650 175/645/645
f 153/647/647 150/651/651 210/637/637
f 210/637/637 150/651/651 147/652/652
f 210/637/637 147/652/652 156/635/635
f 77/653/653 78/654/654 150/651/651
f 150/651/651 78/654/654 147/652/652
f 211/655/655 209/656/656 188/657/657
f 188/657/657 209/656/656 189/658/658
f 23/659/659 24/660/660 92/661/661
f 92/661/661 24/660/660 95/662/662
f 92/661/661 95/662/662 212/663/663
f 212/663/663 95/662/662 104/664/664
f 212/663/663 104/664/664 101/665/665
f 101/665/665 104/664/664 26/666/666
f 26/666/666 104/664/664 25/667/667
f 101/665/665 98/668/668 212/663/663
f 212/663/663 98/668/668 89/669/669
f 212/663/663 89/669/669 86/670/670
f 27/671/671 28/672/672 98/668/668
f 98/668/668 28/672/672 89/669/669
f 17/673/673 18/674/674 86/670/670
f 86/670/670 18/674/674 212/663/663
f 211/675/675 21/676/676 212/663/663
f 212/663/663 21/676/676 83/677/677
f 212/663/663 83/677/677 92/661/661
f 188/678/678 187/679/679 211/675/675
f 211/675/675 187/679/679 21/676/676
f 21/676/676 22/680/680 83/677/677
f 53/681/681 54/682/682 116/683/683
f 116/683/683 54/682/682 125/684/684
f 116/683/683 125/684/684 210/685/685
f 210/685/685 125/684/684 122/686/686
f 210/685/685 122/686/686 46/687/687
f 46/687/687 122/686/686 45/688/688
f 116/683/683 210/685/685 107/689/689
f 107/689/689 210/685/685 212/690/690
f 107/689/689 212/690/690 110/691/691
f 110/691/691 212/690/690 113/692/692
f 113/692/692 212/690/690 128/693/693
f 113/692/692 128/693/693 50/694/694
f 50/694/694 128/693/693 49/695/695
f 128/693/693 212/690/690 119/696/696
f 119/696/696 212/690/690 18/697/697
f 119/696/696 18/697/697 48/698/698
f 51/699/699 52/700/700 110/691/691
f 110/691/691 52/700/700 107/689/689
f 212/701/701 210/702/702 211/703/703
f 211/703/703 210/702/702 209/704/704

# 212 vertices
# 704 texture params
# 704 normals
# 484 facets

# 1 groups
